<svg width="99" height="20" viewBox="0 0 99 20" fill="none" xmlns="http://www.w3.org/2000/svg">
<path d="M19.6488 4.84036C19.6184 4.80873 19.583 4.78038 19.5421 4.75673L11.6039 0.1615C11.232 -0.0538334 10.7741 -0.0538334 10.4022 0.1615L2.54021 4.71258C2.52868 4.71868 2.51659 4.72328 2.50525 4.72987C2.4736 4.74825 2.4435 4.76865 2.41435 4.79011C2.41167 4.79214 2.40878 4.79397 2.40615 4.79605C2.15319 4.98637 1.99994 5.2884 2 5.61008L2.00015 14.114C2.00016 14.768 2.34709 15.3723 2.91025 15.6993L9.72829 19.6584C10.1205 19.8861 10.5603 20 11.0001 20C11.4398 20 11.8796 19.8861 12.2718 19.6584L19.0897 15.6993C19.6529 15.3723 19.9998 14.768 19.9998 14.114L20 5.61008C20 5.31231 19.8688 5.03144 19.6488 4.84036ZM18.0795 13.9177C18.0795 14.0271 18.0215 14.1281 17.9273 14.1828L11.4935 17.9188C11.1881 18.0961 10.8119 18.0961 10.5066 17.9188L4.07262 14.1827C3.97846 14.1281 3.92045 14.027 3.92045 13.9177L3.92032 7.06174C3.92032 6.89806 4.0965 6.79576 4.23745 6.8776L10.1317 10.3003C10.6689 10.6122 11.3307 10.6122 11.8679 10.3003L17.7626 6.87759C17.9035 6.79576 18.0797 6.89806 18.0797 7.06173L18.0795 13.9177Z" fill="white"/>
<path d="M39.7315 16.7705V12.3885C39.7315 12.1874 39.5627 12.0243 39.3546 12.0243H34.4034C34.1952 12.0243 34.0265 12.1874 34.0265 12.3885V16.7705C34.0265 16.9717 33.8577 17.1347 33.6496 17.1347H32.3769C32.1687 17.1347 32 16.9717 32 16.7705V5.69821C32 5.49706 32.1687 5.33398 32.3769 5.33398H33.6496C33.8577 5.33398 34.0265 5.49706 34.0265 5.69821V9.93213C34.0265 10.1333 34.1952 10.2964 34.4034 10.2964H39.3546C39.5627 10.2964 39.7315 10.1333 39.7315 9.93213V5.69821C39.7315 5.49706 39.9002 5.33398 40.1084 5.33398H41.3898C41.5979 5.33398 41.7667 5.49706 41.7667 5.69821V16.7705C41.7667 16.9717 41.5979 17.1347 41.3898 17.1347H40.1084C39.9002 17.1347 39.7315 16.9717 39.7315 16.7705Z" fill="white"/>
<path d="M49.649 17.1345C49.4408 17.1345 49.2721 16.9714 49.2721 16.7703V15.9741H49.238C48.6306 16.8848 47.7706 17.3403 46.658 17.3403C45.8007 17.3403 45.1253 17.1153 44.6314 16.6653C44.1376 16.2156 43.8906 15.6066 43.8906 14.8387C43.8906 14.0484 44.1318 13.415 44.6144 12.9377C45.0969 12.4604 45.8066 12.164 46.7432 12.0487L48.9446 11.757C49.1449 11.7305 49.2924 11.5542 49.2698 11.36C49.1637 10.4478 48.6195 9.99157 47.6372 9.99157C47.1035 9.99157 46.5856 10.0766 46.0832 10.2468C45.8027 10.3417 45.5395 10.4546 45.2935 10.5854C45.045 10.7176 44.7421 10.5385 44.7421 10.2643V9.46424C44.7421 9.32637 44.8207 9.20079 44.9479 9.13829C45.2481 8.99076 45.6493 8.85538 46.1514 8.73246C46.7785 8.57889 47.342 8.50195 47.8416 8.50195C48.9598 8.50195 49.8014 8.78327 50.3663 9.34561C50.931 9.90795 51.2134 10.724 51.2134 11.7938V16.7703C51.2134 16.9714 51.0447 17.1345 50.8365 17.1345H49.649V17.1345ZM45.8235 14.641C45.8235 15.003 45.9598 15.2924 46.2322 15.5093C46.5047 15.7259 46.8509 15.8342 47.271 15.8342C47.8557 15.8342 48.3382 15.6408 48.7186 15.2541C49.0989 14.8674 49.2891 14.3806 49.2891 13.7935V13.4515C49.2891 13.2316 49.0888 13.0618 48.8631 13.0904L47.4072 13.275C46.8112 13.3572 46.3983 13.5 46.1684 13.703C45.9384 13.9059 45.8235 14.2186 45.8235 14.641Z" fill="white"/>
<path d="M59.6237 16.5604C59.6237 16.6958 59.5487 16.8241 59.4233 16.8844C58.7913 17.1883 58.0323 17.3403 57.146 17.3403C56.3058 17.3403 55.5578 17.1647 54.9024 16.8137C54.2466 16.4624 53.7356 15.9634 53.3697 15.316C53.0036 14.6686 52.8203 13.9445 52.8203 13.1432C52.8203 12.2273 53.009 11.4182 53.3866 10.7156C53.7642 10.0136 54.3118 9.469 55.03 9.0823C55.748 8.69559 56.581 8.50195 57.529 8.50195C57.8982 8.50195 58.2812 8.54202 58.6786 8.62127C58.9571 8.67722 59.195 8.74442 59.3926 8.82298C59.5339 8.87917 59.6237 9.01288 59.6237 9.16054V10.0835C59.6237 10.3524 59.3302 10.5318 59.0825 10.4094C58.6079 10.1748 58.1185 10.0575 57.6143 10.0575C56.797 10.0575 56.134 10.3222 55.626 10.8515C55.118 11.381 54.8639 12.0874 54.8639 12.9705C54.8639 13.8484 55.1081 14.537 55.5963 15.0361C56.0844 15.5354 56.7459 15.7848 57.5804 15.7848C57.8811 15.7848 58.2187 15.7218 58.5936 15.5955C58.7643 15.5381 58.9284 15.471 59.0861 15.3943C59.3333 15.2739 59.6237 15.4545 59.6237 15.722V16.5604H59.6237Z" fill="white"/>
<path d="M67.2668 17.1346C67.1537 17.1346 67.0465 17.0855 66.9749 17.0009L63.665 13.0859H63.6308V16.7704C63.6308 16.9716 63.462 17.1346 63.2539 17.1346H62.0409C61.8328 17.1346 61.6641 16.9716 61.6641 16.7704V5.02341C61.6641 4.82225 61.8328 4.65918 62.0409 4.65918H63.2539C63.462 4.65918 63.6308 4.82225 63.6308 5.02341V12.5508H63.665L66.7962 8.8419C66.8678 8.75712 66.975 8.70793 67.0882 8.70793H68.5605C68.8864 8.70793 69.0587 9.08059 68.8413 9.31517L65.8977 12.4911C65.7703 12.6285 65.7694 12.8363 65.8955 12.9748L69.1339 16.5297C69.3482 16.765 69.1754 17.1346 68.8511 17.1346H67.2668V17.1346Z" fill="white"/>
<path d="M79.3886 13.6951C79.3886 14.7263 78.9957 15.5575 78.2096 16.1883C77.4231 16.8195 76.4084 17.1347 75.1654 17.1347H71.5488C71.3406 17.1347 71.1719 16.9717 71.1719 16.7705V5.69821C71.1719 5.49706 71.3406 5.33398 71.5488 5.33398H75.029C76.1984 5.33398 77.1209 5.57814 77.7965 6.06645C78.4718 6.55476 78.8098 7.21581 78.8098 8.0496C78.8098 8.68626 78.6082 9.25122 78.2051 9.74504C77.8019 10.2386 77.2714 10.5843 76.613 10.7818V10.8149C77.4814 10.9246 78.1612 11.2344 78.6524 11.7447C79.1432 12.2548 79.3886 12.9048 79.3886 13.6951ZM76.664 8.42004C76.664 7.9538 76.4838 7.59293 76.1233 7.33804C75.7628 7.08285 75.2278 6.95511 74.5183 6.95511H73.5752C73.3671 6.95511 73.1984 7.11818 73.1984 7.31934V9.85809C73.1984 10.0592 73.3671 10.2223 73.5752 10.2223H74.5012C75.1879 10.2223 75.7202 10.0673 76.0978 9.75724C76.4751 9.44747 76.664 9.00154 76.664 8.42004ZM77.2429 13.6454C77.2429 13.0805 77.0329 12.6389 76.613 12.3207C76.1927 12.0025 75.5655 11.8434 74.731 11.8434H73.5752C73.3671 11.8434 73.1984 12.0065 73.1984 12.2077V15.1494C73.1984 15.3505 73.3671 15.5136 73.5752 15.5136H74.91C75.6364 15.5136 76.2068 15.3449 76.6214 15.0076C77.0356 14.67 77.2429 14.2162 77.2429 13.6454Z" fill="white"/>
<path d="M89.8178 12.839C89.8178 14.2049 89.4093 15.2968 88.5919 16.114C87.7742 16.9316 86.6645 17.3403 85.2623 17.3403C83.9171 17.3403 82.8456 16.9522 82.048 16.1759C81.2505 15.3996 80.8516 14.3478 80.8516 13.0199C80.8516 11.6208 81.2604 10.5182 82.0778 9.7117C82.8952 8.9052 84.0277 8.50195 85.4753 8.50195C86.8376 8.50195 87.9022 8.88749 88.6685 9.65828C89.4348 10.4291 89.8178 11.4893 89.8178 12.839ZM87.7742 12.9046C87.7742 11.9721 87.56 11.2643 87.1314 10.7815C86.7027 10.299 86.1139 10.0575 85.3647 10.0575C84.5924 10.0575 83.988 10.3097 83.5509 10.8146C83.1139 11.3192 82.8952 12.0325 82.8952 12.9539C82.8952 13.8484 83.1139 14.5437 83.5509 15.0402C83.988 15.5369 84.5981 15.7848 85.3816 15.7848C86.1707 15.7848 86.7667 15.541 87.1698 15.0526C87.5726 14.5643 87.7742 13.8484 87.7742 12.9046Z" fill="white"/>
<path d="M96.0308 13.1072L98.4007 16.5695C98.5665 16.8117 98.3868 17.1347 98.0864 17.1347H96.7149C96.5801 17.1347 96.4556 17.0652 96.3883 16.9523L94.9815 14.5918L94.6154 13.9337H94.5811L94.4089 14.2745C94.4045 14.283 94.3999 14.2914 94.3949 14.2996L92.7745 16.9555C92.7068 17.0666 92.5833 17.1347 92.4499 17.1347H91.1119C90.8077 17.1347 90.6289 16.8044 90.8022 16.5629L93.2379 13.1697C93.3244 13.0492 93.3276 12.8902 93.246 12.7664L90.9397 9.26795C90.7798 9.02549 90.96 8.70801 91.2575 8.70801H92.6437C92.7828 8.70801 92.9107 8.78211 92.9762 8.90074L94.3513 11.3908C94.4988 11.6541 94.6096 11.8791 94.6832 12.0655H94.7175C94.74 12.0051 94.774 11.9325 94.8196 11.8475C94.8635 11.7651 95.4345 10.7811 96.5325 8.89577C96.5992 8.78113 96.7261 8.70801 96.8622 8.70801H98.0981C98.3996 8.70801 98.5791 9.03313 98.4112 9.27511L96.0322 12.7033C95.9475 12.8254 95.947 12.9846 96.0308 13.1072Z" fill="white"/>
</svg>
